# xmcd
#
# Track frame offsets: 
#        150
#        7883
#        19423
#        34510
#        50355
#        62003
#        70455
#        86375
#        103630
#        118605
#        131753
#        144228
#        154915
#        167393
#        180638
#        194965
#
# Disc length: 2766 seconds
#
# Revision: 0
# Processed by: cddbd v1.5.2PL0 Copyright (c) Steve Scherf et al.
# Submitted via: ExactAudioCopy v1.0b3
#
DISCID=d60acc10
DTITLE=Various Artist - 國語柔情金曲(三)
DYEAR=1900
DGENRE=Country
TTITLE0=劉家昌 - 又像细雨又像風
TTITLE1=鳳飛飛 - 重相逢
TTITLE2=尤雅 - 他的眼睛月亮
TTITLE3=费玉清 - 永遠的微笑
TTITLE4=尤雅 - 年紀輕輕
TTITLE5=尤雅 - 路邊的小花
TTITLE6=费玉清 - 不要忘了我
TTITLE7=鳳飛飛 - 往事難追憶
TTITLE8=费玉清 - 昨天
TTITLE9=鳳飛飛 - 我乘著風兒來
TTITLE10=劉家昌 - 晚風
TTITLE11=鳳飛飛 - 愛神的箭
TTITLE12=费玉清 - 刮地風
TTITLE13=尤雅 - 別了愛人
TTITLE14=尤雅 - 依偎在夢中
TTITLE15=鳳飛飛 - 綠島小夜曲
EXTD=
EXTT0=
EXTT1=
EXTT2=
EXTT3=
EXTT4=
EXTT5=
EXTT6=
EXTT7=
EXTT8=
EXTT9=
EXTT10=
EXTT11=
EXTT12=
EXTT13=
EXTT14=
EXTT15=
PLAYORDER=
